<svg width="67" height="27" viewBox="0 0 67 27" fill="none" xmlns="http://www.w3.org/2000/svg">
<path d="M9.37946 4.17307V9.62928H7.1509V4.45884C7.1509 3.61482 6.95152 2.98569 6.55277 2.56922C6.15402 2.15274 5.6002 1.94451 4.88688 1.94451C4.36186 1.94451 3.89888 2.05084 3.4957 2.26572C3.0903 2.47838 2.77796 2.79739 2.55864 3.21829C2.33933 3.64141 2.22856 4.17307 2.22856 4.8155V9.62928H0V0.108044H2.12223V1.34638C2.41021 0.998583 2.7713 0.712816 3.20106 0.491289C3.83685 0.163429 4.5701 0.00170898 5.40305 0.00170898C6.16288 0.00170898 6.84519 0.150134 7.44553 0.446981C8.04366 0.743827 8.51772 1.19796 8.8633 1.81159C9.20667 2.423 9.37946 3.20943 9.37946 4.17307Z" fill="white"/>
<path d="M16.5121 9.75605C15.5374 9.75605 14.669 9.54561 13.9092 9.12249C13.1471 8.70159 12.5468 8.12119 12.1082 7.38351C11.6673 6.64582 11.448 5.80844 11.448 4.86916C11.448 3.91881 11.6673 3.07701 12.1082 2.34597C12.5468 1.61493 13.1471 1.04118 13.9092 0.624708C14.669 0.208237 15.5374 0 16.5121 0C17.4979 0 18.3752 0.208237 19.1416 0.624708C19.9081 1.04118 20.5085 1.61272 20.9427 2.33711C21.3769 3.0615 21.594 3.90552 21.594 4.86916C21.594 5.80844 21.3769 6.64582 20.9427 7.38351C20.5085 8.12119 19.9081 8.69937 19.1416 9.12249C18.3752 9.54339 17.4979 9.75605 16.5121 9.75605ZM16.5121 7.84649C17.0593 7.84649 17.5466 7.72687 17.9742 7.48983C18.4017 7.2528 18.7385 6.90722 18.9821 6.4553C19.2258 6.00338 19.3477 5.47393 19.3477 4.86916C19.3477 4.2511 19.2258 3.71944 18.9821 3.27417C18.7385 2.8289 18.4017 2.48775 17.9742 2.2485C17.5466 2.01147 17.0659 1.89184 16.5298 1.89184C15.9827 1.89184 15.4975 2.01147 15.0766 2.2485C14.6535 2.48553 14.319 2.8289 14.0687 3.27417C13.8183 3.71944 13.6943 4.2511 13.6943 4.86916C13.6943 5.47615 13.8183 6.0056 14.0687 6.4553C14.319 6.90722 14.6535 7.2528 15.0766 7.48983C15.4975 7.72908 15.976 7.84649 16.5121 7.84649Z" fill="white"/>
<path d="M32.3808 0.108398L28.298 9.62963H25.9986L21.9136 0.108398H24.233L27.1837 7.16403L30.2408 0.108398H32.3808Z" fill="white"/>
<path d="M40.306 0.989725C39.5506 0.329574 38.485 0.00170898 37.1049 0.00170898C36.3451 0.00170898 35.6096 0.0991826 34.9029 0.294127C34.1963 0.491286 33.5871 0.785922 33.0753 1.17802L33.9481 2.7996C34.307 2.50275 34.7434 2.27237 35.2596 2.10401C35.778 1.93786 36.303 1.8559 36.8369 1.8559C37.6344 1.8559 38.2281 2.03755 38.6202 2.39864C39.0145 2.76194 39.2094 3.26924 39.2094 3.92274V4.06673H36.7483C35.7868 4.06673 35.0137 4.19079 34.4311 4.44112C33.8485 4.69144 33.4298 5.02816 33.1728 5.45793C32.918 5.88547 32.7896 6.36618 32.7896 6.90228C32.7896 7.44945 32.9358 7.93903 33.2282 8.37322C33.5184 8.80742 33.9304 9.14636 34.4665 9.39004C35.0004 9.63151 35.6251 9.75555 36.3384 9.75555C37.1825 9.75555 37.8803 9.60049 38.4341 9.29035C38.8151 9.07768 39.1164 8.80299 39.3335 8.4707V9.62928H41.438V4.04902C41.438 2.6689 41.0614 1.64988 40.306 0.989725ZM38.2724 7.75739C37.8404 8.00771 37.3486 8.13177 36.8014 8.13177C36.2321 8.13177 35.7868 8.01213 35.4656 7.7751C35.1444 7.53806 34.9827 7.21686 34.9827 6.81146C34.9827 6.4548 35.1134 6.15574 35.3748 5.91206C35.6362 5.66838 36.1479 5.54654 36.91 5.54654H39.2094V6.65195C39.0189 7.13931 38.7066 7.50706 38.2724 7.75739Z" fill="white"/>
<path d="M9.37946 21.0095V26.4657H7.1509V21.2952C7.1509 20.4512 6.95152 19.8221 6.55277 19.4056C6.15402 18.9891 5.6002 18.7809 4.88688 18.7809C4.36186 18.7809 3.89888 18.8872 3.4957 19.1021C3.0903 19.3148 2.77796 19.6338 2.55864 20.0547C2.33933 20.4778 2.22856 21.0095 2.22856 21.6519V26.4657H0V13.2361H2.22856V18.0609C2.4966 17.7663 2.82225 17.5226 3.20106 17.3277C3.83685 16.9998 4.5701 16.8381 5.40305 16.8381C6.16288 16.8381 6.84519 16.9865 7.44553 17.2834C8.04366 17.5802 8.51772 18.0344 8.8633 18.648C9.20667 19.2594 9.37946 20.0458 9.37946 21.0095Z" fill="white"/>
<path d="M16.5121 26.5917C15.5374 26.5917 14.669 26.3813 13.9092 25.9582C13.1471 25.5373 12.5468 24.9569 12.1082 24.2192C11.6673 23.4815 11.448 22.6441 11.448 21.7049C11.448 20.7545 11.6673 19.9127 12.1082 19.1817C12.5468 18.4506 13.1471 17.8769 13.9092 17.4604C14.669 17.0439 15.5374 16.8357 16.5121 16.8357C17.4979 16.8357 18.3752 17.0439 19.1416 17.4604C19.9081 17.8769 20.5085 18.4484 20.9427 19.1728C21.3769 19.8972 21.594 20.7412 21.594 21.7049C21.594 22.6441 21.3769 23.4815 20.9427 24.2192C20.5085 24.9569 19.9081 25.5351 19.1416 25.9582C18.3752 26.3791 17.4979 26.5917 16.5121 26.5917ZM16.5121 24.6822C17.0593 24.6822 17.5466 24.5626 17.9742 24.3255C18.4017 24.0885 18.7385 23.7429 18.9821 23.291C19.2258 22.8391 19.3477 22.3096 19.3477 21.7049C19.3477 21.0868 19.2258 20.5551 18.9821 20.1099C18.7385 19.6646 18.4017 19.3234 17.9742 19.0842C17.5466 18.8472 17.0659 18.7275 16.5298 18.7275C15.9827 18.7275 15.4975 18.8472 15.0766 19.0842C14.6535 19.3212 14.319 19.6646 14.0687 20.1099C13.8183 20.5551 13.6943 21.089 13.6943 21.7049C13.6943 22.3118 13.8183 22.8413 14.0687 23.291C14.319 23.7429 14.6535 24.0885 15.0766 24.3255C15.4975 24.5648 15.976 24.6822 16.5121 24.6822Z" fill="white"/>
<path d="M23.7316 26.4657V16.9445H25.8539V19.5651L25.6036 18.7986C25.8893 18.1562 26.3368 17.6689 26.9504 17.3366C27.5619 17.0043 28.3261 16.8381 29.241 16.8381V18.9604C29.1458 18.936 29.0572 18.9227 28.973 18.9161C28.8888 18.9094 28.8068 18.9072 28.7227 18.9072C27.8786 18.9072 27.2074 19.1531 26.7068 19.6471C26.2083 20.1411 25.958 20.8744 25.958 21.8491V26.4679H23.7316V26.4657Z" fill="white"/>
<path d="M32.2564 15.376C31.8399 15.376 31.4988 15.2453 31.2307 14.9839C30.9627 14.7225 30.8297 14.4079 30.8297 14.038C30.8297 13.6569 30.9627 13.3402 31.2307 13.0832C31.4988 12.8284 31.8399 12.7 32.2564 12.7C32.6728 12.7 33.014 12.8218 33.2821 13.0655C33.5501 13.3091 33.683 13.6149 33.683 13.9848C33.683 14.3769 33.5523 14.707 33.2909 14.975C33.0295 15.2409 32.6839 15.376 32.2564 15.376ZM31.1332 26.4656V16.9444H33.3618V26.4656H31.1332Z" fill="white"/>
<path d="M43.7226 24.6828V26.4661H35.5017V25.0571L40.7342 18.7281H35.6081V16.9448H43.5609V18.3537L38.3284 24.6828H43.7226Z" fill="white"/>
<path d="M49.9098 26.5917C48.935 26.5917 48.0667 26.3813 47.3068 25.9582C46.5448 25.5373 45.9444 24.9569 45.5058 24.2192C45.065 23.4815 44.8456 22.6441 44.8456 21.7049C44.8456 20.7545 45.065 19.9127 45.5058 19.1817C45.9444 18.4506 46.5448 17.8769 47.3068 17.4604C48.0667 17.0439 48.935 16.8357 49.9098 16.8357C50.8956 16.8357 51.7728 17.0439 52.5393 17.4604C53.3058 17.8769 53.9061 18.4484 54.3403 19.1728C54.7745 19.8972 54.9916 20.7412 54.9916 21.7049C54.9916 22.6441 54.7745 23.4815 54.3403 24.2192C53.9061 24.9569 53.3058 25.5351 52.5393 25.9582C51.7728 26.3791 50.8956 26.5917 49.9098 26.5917ZM49.9098 24.6822C50.4569 24.6822 50.9443 24.5626 51.3718 24.3255C51.7994 24.0885 52.1361 23.7429 52.3798 23.291C52.6235 22.8391 52.7453 22.3096 52.7453 21.7049C52.7453 21.0868 52.6235 20.5551 52.3798 20.1099C52.1361 19.6646 51.7994 19.3234 51.3718 19.0842C50.9443 18.8472 50.4636 18.7275 49.9275 18.7275C49.3803 18.7275 48.8952 18.8472 48.4743 19.0842C48.0511 19.3212 47.7166 19.6646 47.4663 20.1099C47.216 20.5551 47.0919 21.089 47.0919 21.7049C47.0919 22.3118 47.216 22.8413 47.4663 23.291C47.7166 23.7429 48.0511 24.0885 48.4743 24.3255C48.8952 24.5648 49.3737 24.6822 49.9098 24.6822Z" fill="white"/>
<path d="M66.509 21.0095V26.4657H64.2805V21.2953C64.2805 20.4512 64.0811 19.8221 63.6846 19.4056C63.2858 18.9892 62.7298 18.7809 62.0165 18.7809C61.4937 18.7809 61.0307 18.8873 60.6253 19.1021C60.2221 19.3148 59.9097 19.6338 59.6904 20.0547C59.4689 20.4778 59.3604 21.0095 59.3604 21.6519V26.4657H57.1318V16.9445H59.2518V18.1828C59.5398 17.835 59.9009 17.5492 60.3306 17.3277C60.9664 16.9998 61.7019 16.8381 62.5326 16.8381C63.2947 16.8381 63.9748 16.9866 64.5751 17.2834C65.1754 17.5803 65.6473 18.0344 65.9929 18.648C66.3385 19.2594 66.509 20.0458 66.509 21.0095Z" fill="white"/>
</svg>
